Coordinates
version=1
nRows=33
nColumns=34
inDegrees=yes

Units are S.I. units (second, meters, Newtons, ...)
If the header above contains a line with 'inDegrees', this indicates whether rotational values are in degrees (yes) or radians (no).

endheader
time	pelvis_tilt	pelvis_list	pelvis_rotation	pelvis_tx	pelvis_ty	pelvis_tz	hip_flexion_r	hip_adduction_r	hip_rotation_r	knee_angle_r	ankle_angle_r	subtalar_angle_r	mtp_angle_r	hip_flexion_l	hip_adduction_l	hip_rotation_l	knee_angle_l	ankle_angle_l	subtalar_angle_l	mtp_angle_l	lumbar_extension	lumbar_bending	lumbar_rotation	arm_flex_r	arm_add_r	arm_rot_r	elbow_flex_r	pro_sup_r	arm_flex_l	arm_add_l	arm_rot_l	elbow_flex_l	pro_sup_l
11.450000	4.169384	1.366765	3.664331	0.910045	0.932928	-0.086190	-4.239234	-3.992949	-25.307993	-0.000001	5.783516	-0.881815	0.000000	-3.573148	-1.891840	-23.216847	-0.000001	5.002883	5.821257	0.000000	-7.523796	-0.227877	-1.776793	7.859642	-6.185645	18.747634	24.277733	76.390932	11.378217	-7.421128	10.735267	24.030162	71.706984
11.466667	4.149898	1.365854	3.654359	0.910207	0.933119	-0.086189	-4.214500	-3.989259	-25.328625	-0.000001	5.779044	-0.895831	0.000000	-3.559595	-1.896365	-23.218013	-0.000001	5.004204	5.818422	0.000000	-7.554764	-0.229776	-1.754422	7.863373	-6.198751	18.749248	24.271532	76.391758	11.349281	-7.446960	10.714407	24.015120	71.700226
11.483333	4.137444	1.364157	3.652245	0.910300	0.933319	-0.086188	-4.201857	-3.984588	-25.350084	-0.000001	5.774243	-0.909516	0.000000	-3.553322	-1.901379	-23.217316	-0.000001	5.006994	5.813143	0.000000	-7.587128	-0.227647	-1.733440	7.873758	-6.212903	18.747264	24.268553	76.391288	11.330519	-7.473368	10.707876	24.005287	71.698426
11.500000	4.124062	1.361279	3.654468	0.910272	0.933465	-0.086190	-4.191626	-3.979334	-25.374653	0.000000	5.766018	-0.924939	0.000000	-3.543242	-1.905469	-23.219196	0.000000	5.009471	5.806215	0.000000	-7.611115	-0.221580	-1.713794	7.891706	-6.230193	18.744104	24.268217	76.390463	11.324425	-7.498967	10.701996	24.000912	71.696951
11.516667	4.102731	1.356899	3.658938	0.910104	0.933600	-0.086200	-4.172923	-3.973792	-25.407315	0.000003	5.749651	-0.945062	0.000000	-3.518812	-1.907512	-23.226595	0.000004	5.009567	5.797432	0.000000	-7.624333	-0.211170	-1.693701	7.920300	-6.253782	18.741115	24.270013	76.389843	11.334000	-7.525041	10.686672	24.002394	71.692448
11.533333	4.068100	1.351363	3.665107	0.909828	0.933828	-0.086207	-4.135701	-3.968632	-25.452092	0.000007	5.720140	-0.971583	0.000000	-3.472091	-1.906526	-23.240606	0.000009	5.004535	5.786547	0.000000	-7.628909	-0.196571	-1.671722	7.962087	-6.285490	18.739070	24.273435	76.389744	11.362236	-7.552510	10.655965	24.010340	71.682972
11.550000	4.018458	1.346071	3.673623	0.909520	0.934159	-0.086194	-4.074821	-3.965148	-25.508105	0.000012	5.674649	-1.002632	0.000000	-3.400866	-1.901604	-23.259962	0.000016	4.991201	5.774289	0.000000	-7.628540	-0.179694	-1.648713	8.016175	-6.323294	18.738491	24.277964	76.390338	11.410800	-7.579462	10.609586	24.025229	71.668433
11.566667	3.956606	1.343051	3.685457	0.909268	0.934413	-0.086158	-3.992270	-3.964831	-25.569608	0.000017	5.614845	-1.033151	0.000000	-3.309968	-1.892396	-23.281549	0.000023	4.967410	5.762407	0.000000	-7.626250	-0.164085	-1.627096	8.078786	-6.362245	18.739444	24.283197	76.391674	11.478900	-7.602828	10.552745	24.046634	71.650604
11.583333	3.888657	1.343709	3.700224	0.909134	0.934392	-0.086104	-3.896215	-3.968229	-25.629924	0.000019	5.547819	-1.058050	0.000000	-3.209627	-1.880092	-23.301850	0.000025	4.934053	5.752790	0.000000	-7.623082	-0.153297	-1.608670	8.145883	-6.398132	18.741177	24.288885	76.393659	11.562912	-7.622058	10.493742	24.072646	71.632399
11.600000	3.821727	1.347894	3.715692	0.909131	0.934099	-0.086033	-3.798250	-3.974210	-25.684114	0.000010	5.484520	-1.074948	0.000000	-3.111799	-1.867563	-23.318144	0.000014	4.895617	5.746820	0.000000	-7.618027	-0.149308	-1.593662	8.214319	-6.429220	18.742411	24.294702	76.396054	11.656875	-7.639899	10.440593	24.100267	71.616658
11.616667	3.759945	1.354211	3.730078	0.909223	0.933708	-0.085952	-3.707520	-3.980838	-25.728909	-0.000018	5.434523	-1.085596	0.000000	-3.024034	-1.857748	-23.329260	-0.000024	4.857771	5.745319	0.000000	-7.608220	-0.152133	-1.581042	8.283569	-6.455890	18.742341	24.300117	76.398463	11.756411	-7.660504	10.395787	24.127546	71.604161
11.633333	3.700816	1.360955	3.743750	0.909335	0.933383	-0.085888	-3.624248	-3.986996	-25.761471	-0.000073	5.400191	-1.097042	0.000000	-2.944355	-1.851712	-23.335709	-0.000100	4.824320	5.748769	0.000000	-7.589176	-0.160341	-1.569661	8.357438	-6.480434	18.741675	24.304178	76.400234	11.862761	-7.686960	10.350704	24.155981	71.591421
11.650000	3.636836	1.366614	3.757866	0.909408	0.933175	-0.085878	-3.540755	-3.992760	-25.776524	-0.000160	5.375722	-1.122019	0.000000	-2.863690	-1.848418	-23.338697	-0.000217	4.797286	5.757559	0.000000	-7.554892	-0.171382	-1.560104	8.441315	-6.506194	18.743169	24.305169	76.400236	11.980050	-7.718875	10.284578	24.190691	71.570004
11.666667	3.559778	1.369696	3.772384	0.909433	0.933054	-0.085933	-3.447197	-3.998355	-25.763418	-0.000265	5.350182	-1.178646	0.000000	-2.771963	-1.846105	-23.338660	-0.000360	4.778773	5.772212	0.000000	-7.496784	-0.181725	-1.555664	8.539352	-6.536617	18.751473	24.301052	76.396630	12.111232	-7.752422	10.166739	24.239761	71.527152
11.683333	3.461872	1.368198	3.786280	0.909415	0.932933	-0.086048	-3.333175	-4.002921	-25.706677	-0.000346	5.310762	-1.289435	0.000000	-2.659737	-1.843882	-23.334279	-0.000471	4.771338	5.793203	0.000000	-7.404517	-0.187888	-1.561092	8.656351	-6.575761	18.772287	24.290994	76.386932	12.259455	-7.783448	9.959932	24.314304	71.447221
11.700000	3.336905	1.359517	3.798908	0.909345	0.932692	-0.086206	-3.189213	-4.003897	-25.591716	-0.000317	5.246964	-1.475379	0.000000	-2.519081	-1.842665	-23.322411	-0.000432	4.777315	5.819563	0.000000	-7.272729	-0.187546	-1.580292	8.798724	-6.628548	18.810265	24.277569	76.368725	12.429191	-7.810284	9.632155	24.426482	71.316722
11.716667	3.187182	1.341418	3.810390	0.909197	0.932261	-0.086385	-3.015615	-3.997545	-25.416425	-0.000040	5.157827	-1.739556	0.000000	-2.351226	-1.844944	-23.298733	-0.000055	4.798225	5.846327	0.000000	-7.110781	-0.179013	-1.614875	8.972349	-6.699997	18.864294	24.270375	76.341333	12.627333	-7.836072	9.185677	24.584238	71.136405
11.733333	3.029634	1.313332	3.822485	0.908918	0.931649	-0.086577	-2.829365	-3.980388	-25.199643	0.000658	5.056688	-2.053901	0.000000	-2.172623	-1.853574	-23.257616	0.000894	4.833860	5.862393	0.000000	-6.948153	-0.160160	-1.663833	9.183206	-6.795598	18.923144	24.290617	76.307022	12.868789	-7.871260	8.680919	24.788958	70.931247
11.750000	2.887209	1.276272	3.839429	0.908439	0.930905	-0.086803	-2.653182	-3.950546	-24.967959	0.001919	4.961129	-2.381442	0.000000	-2.004464	-1.870438	-23.189856	0.002609	4.881253	5.850074	0.000000	-6.826263	-0.128721	-1.724791	9.439324	-6.922636	18.970122	24.372600	76.268552	13.175409	-7.930121	8.206023	25.044139	70.737443
11.766667	2.772411	1.231645	3.865719	0.907728	0.930055	-0.087095	-2.496631	-3.908533	-24.730157	0.003718	4.873677	-2.720569	0.000000	-1.855834	-1.895588	-23.081531	0.005059	4.933988	5.786728	0.000000	-6.776854	-0.083525	-1.796884	9.748029	-7.089393	18.994573	24.558994	76.224537	13.562913	-8.021114	7.809724	25.367061	70.573758
11.783333	2.682763	1.180815	3.903383	0.906802	0.929139	-0.087456	-2.352837	-3.857350	-24.473755	0.005646	4.776596	-3.111715	0.000000	-1.721368	-1.927115	-22.918992	0.007686	4.981851	5.650222	0.000000	-6.804730	-0.025799	-1.882117	10.112669	-7.301208	18.996012	24.889658	76.168802	14.033527	-8.142808	7.479205	25.783921	70.432474
11.800000	2.605992	1.125379	3.952196	0.905663	0.928326	-0.087830	-2.206375	-3.801441	-24.186995	0.006627	4.646111	-3.593622	0.000000	-1.587113	-1.961896	-22.698963	0.009026	5.011931	5.431492	0.000000	-6.888501	0.040007	-1.983339	10.537594	-7.555058	18.978167	25.382245	76.095222	14.585440	-8.288882	7.175884	26.305493	70.295915
11.816667	2.523782	1.067162	4.010535	0.904216	0.927880	-0.088121	-2.036275	-3.745044	-23.876120	0.004670	4.468685	-4.161393	0.000000	-1.432034	-1.996426	-22.433857	0.006373	5.011393	5.144803	0.000000	-6.996388	0.106914	-2.101399	11.038191	-7.836885	18.942739	26.017324	76.002697	15.227975	-8.453622	6.872675	26.907387	70.153682
11.833333	2.417961	1.008242	4.074908	0.902290	0.927948	-0.088254	-1.819365	-3.691058	-23.556037	-0.003121	4.242038	-4.777859	0.000000	-1.232551	-2.027016	-22.142087	-0.004219	4.968888	4.814221	0.000000	-7.107976	0.167642	-2.233848	11.642035	-8.127426	18.888684	26.756718	75.894341	15.985057	-8.633347	6.558426	27.544355	70.004144
11.850000	2.280124	0.951097	4.139458	0.899817	0.928407	-0.088213	-1.540854	-3.640831	-23.230342	-0.019956	3.967943	-5.412203	0.000000	-0.974002	-2.050144	-21.835027	-0.027120	4.875420	4.449949	0.000000	-7.226375	0.216478	-2.373857	12.379312	-8.412419	18.814688	27.575105	75.773933	16.884753	-8.824918	6.224068	28.182177	69.847322
11.866667	2.114707	0.898182	4.195754	0.896955	0.928928	-0.088043	-1.201819	-3.594617	-22.889826	-0.047694	3.653960	-6.046599	0.000000	-0.657353	-2.063637	-21.518096	-0.064871	4.727467	4.046954	0.000000	-7.370182	0.249915	-2.509203	13.275060	-8.686782	18.719992	28.459922	75.646275	17.949321	-9.023592	5.858855	28.804525	69.683428
11.883333	1.932006	0.851132	4.233651	0.893923	0.929165	-0.087792	-0.812860	-3.552342	-22.519784	-0.083713	3.312555	-6.675648	0.000000	-0.292143	-2.067972	-21.193195	-0.113920	4.525966	3.588107	0.000000	-7.557525	0.267004	-2.624886	14.345741	-8.954660	18.603621	29.406254	75.516960	19.192175	-9.223676	5.450932	29.405311	69.512584
11.900000	1.736804	0.810235	4.244230	0.890768	0.928929	-0.087445	-0.377104	-3.514392	-22.101776	-0.116252	2.953137	-7.319380	0.000000	0.120542	-2.067500	-20.855602	-0.158276	4.272679	3.040697	0.000000	-7.794909	0.268458	-2.707248	15.597224	-9.228151	18.464796	30.425218	75.389274	20.616982	-9.422532	4.985158	29.990579	69.331387
11.916667	1.520454	0.774307	4.222620	0.887407	0.928238	-0.086942	0.123767	-3.482607	-21.620134	-0.119091	2.585155	-8.011070	0.000000	0.602304	-2.071792	-20.499902	-0.162274	3.973510	2.369387	0.000000	-8.070284	0.254393	-2.744906	17.026187	-9.521204	18.304850	31.531177	75.265247	22.218490	-9.623434	4.451467	30.575877	69.134720
11.933333	1.263269	0.741029	4.170020	0.883858	0.927226	-0.086276	0.727587	-3.461879	-21.065997	-0.048124	2.220304	-8.783020	0.000000	1.197342	-2.095360	-20.124642	-0.065890	3.640225	1.544210	0.000000	-8.355244	0.224832	-2.731300	18.619695	-9.845840	18.130120	32.728790	75.147731	23.984771	-9.833435	3.851572	31.176575	68.917345
11.950000	0.942887	0.707381	4.096473	0.880321	0.926031	-0.085576	1.477582	-3.461227	-20.439190	0.155245	1.867882	-9.666703	0.000000	1.960793	-2.154285	-19.729861	0.210664	3.292119	0.542283	0.000000	-8.613022	0.182480	-2.672097	20.354337	-10.213006	17.954129	34.015083	75.039388	25.897307	-10.059813	3.200552	31.802528	68.672391
11.966667	0.538634	0.669846	4.021022	0.877043	0.924731	-0.085045	2.409310	-3.491794	-19.761278	0.549052	1.541928	-10.668886	0.000000	2.944126	-2.260546	-19.321252	0.745840	2.965839	-0.624624	0.000000	-8.799992	0.132267	-2.588322	22.205364	-10.629005	17.798146	35.361848	74.944414	27.930474	-10.310242	2.541787	32.453790	68.396567
11.983333	0.033264	0.625080	3.964921	0.874133	0.923320	-0.084817	3.543103	-3.562301	-19.068617	1.169667	1.258519	-11.767713	0.000000	4.180374	-2.415914	-18.901975	1.586193	2.703654	-1.913212	0.000000	-8.869568	0.078876	-2.506932	24.156866	-11.094834	17.692155	36.712656	74.870425	30.056423	-10.590976	1.948502	33.117927	68.091025
